<svg width="980" height="360" viewBox="0 0 980 360" fill="none" xmlns="http://www.w3.org/2000/svg" role="img" aria-labelledby="title desc">
  <title id="title">Animated 3D developer workspace</title>
  <desc id="desc">A dark 3D inspired coding scene with animated floating cubes, orbit lines, and glowing panels.</desc>
  <style>
    .float-a { animation: floatA 4s ease-in-out infinite; }
    .float-b { animation: floatB 5.5s ease-in-out infinite; }
    .float-c { animation: floatC 6s ease-in-out infinite; }
    .pulse { animation: pulse 2.8s ease-in-out infinite; }
    .scan { animation: scan 3.2s linear infinite; }
    .dash { stroke-dasharray: 12 18; animation: dash 14s linear infinite; }
    .type { animation: blink 1.1s steps(2) infinite; }
    @keyframes floatA { 0%,100% { transform: translateY(0); } 50% { transform: translateY(-16px); } }
    @keyframes floatB { 0%,100% { transform: translateY(0) translateX(0); } 50% { transform: translateY(12px) translateX(10px); } }
    @keyframes floatC { 0%,100% { transform: translateY(0) rotate(0deg); } 50% { transform: translateY(-10px) rotate(2deg); } }
    @keyframes pulse { 0%,100% { opacity: .42; } 50% { opacity: 1; } }
    @keyframes scan { 0% { transform: translateY(-70px); opacity: 0; } 15% { opacity: .9; } 85% { opacity: .9; } 100% { transform: translateY(250px); opacity: 0; } }
    @keyframes dash { to { stroke-dashoffset: -420; } }
    @keyframes blink { 0%,45% { opacity: 1; } 46%,100% { opacity: 0; } }
  </style>

  <defs>
    <linearGradient id="bg" x1="0" x2="980" y1="0" y2="360" gradientUnits="userSpaceOnUse">
      <stop stop-color="#0D1117"/>
      <stop offset=".5" stop-color="#101935"/>
      <stop offset="1" stop-color="#0D1117"/>
    </linearGradient>
    <linearGradient id="cyan" x1="0" x2="1" y1="0" y2="1">
      <stop stop-color="#00D9FF"/>
      <stop offset="1" stop-color="#2CB67D"/>
    </linearGradient>
    <linearGradient id="purple" x1="0" x2="1" y1="0" y2="1">
      <stop stop-color="#7F5AF0"/>
      <stop offset="1" stop-color="#00D9FF"/>
    </linearGradient>
    <filter id="glow" x="-40%" y="-40%" width="180%" height="180%">
      <feGaussianBlur stdDeviation="8" result="blur"/>
      <feColorMatrix in="blur" type="matrix" values="0 0 0 0 0 0 0 0 0 .85 0 0 0 0 1 0 0 0 .75 0"/>
      <feBlend in="SourceGraphic"/>
    </filter>
    <filter id="soft" x="-30%" y="-30%" width="160%" height="160%">
      <feGaussianBlur stdDeviation="18"/>
    </filter>
  </defs>

  <rect width="980" height="360" rx="26" fill="url(#bg)"/>
  <circle cx="165" cy="62" r="80" fill="#7F5AF0" opacity=".28" filter="url(#soft)"/>
  <circle cx="830" cy="284" r="96" fill="#00D9FF" opacity=".18" filter="url(#soft)"/>

  <path class="dash" d="M90 260 C210 110 345 300 476 165 S705 55 885 210" stroke="url(#purple)" stroke-width="2.5" opacity=".55"/>
  <path class="dash" d="M75 122 C260 225 360 65 505 118 S720 260 910 95" stroke="url(#cyan)" stroke-width="2" opacity=".38"/>

  <g transform="translate(118 86)">
    <g class="float-a">
      <polygon points="52,0 104,30 52,60 0,30" fill="#00D9FF" opacity=".95"/>
      <polygon points="0,30 52,60 52,122 0,92" fill="#1488A6"/>
      <polygon points="104,30 52,60 52,122 104,92" fill="#2CB67D"/>
      <path d="M52 0v60M0 30v62M104 30v62M52 60v62" stroke="#DFFBFF" opacity=".45"/>
    </g>
  </g>

  <g transform="translate(763 74)">
    <g class="float-b">
      <polygon points="42,0 84,24 42,48 0,24" fill="#7F5AF0"/>
      <polygon points="0,24 42,48 42,100 0,76" fill="#5636B8"/>
      <polygon points="84,24 42,48 42,100 84,76" fill="#00D9FF"/>
      <path d="M42 0v48M0 24v52M84 24v52M42 48v52" stroke="#FFFFFF" opacity=".38"/>
    </g>
  </g>

  <g transform="translate(700 220)">
    <g class="float-c">
      <polygon points="34,0 68,20 34,40 0,20" fill="#2CB67D"/>
      <polygon points="0,20 34,40 34,82 0,62" fill="#16835A"/>
      <polygon points="68,20 34,40 34,82 68,62" fill="#00D9FF"/>
    </g>
  </g>

  <g transform="translate(230 74)">
    <rect width="520" height="222" rx="18" fill="#0B1020" stroke="#263454" stroke-width="2"/>
    <rect x="18" y="18" width="484" height="30" rx="10" fill="#121B33"/>
    <circle cx="38" cy="33" r="5" fill="#FF5F56"/>
    <circle cx="58" cy="33" r="5" fill="#FFBD2E"/>
    <circle cx="78" cy="33" r="5" fill="#27C93F"/>

    <g font-family="JetBrains Mono, Fira Code, monospace" font-size="15" fill="#DFFBFF">
      <text x="34" y="86" fill="#7F5AF0">class</text>
      <text x="92" y="86" fill="#00D9FF">Nguyen</text>
      <text x="166" y="86" fill="#DFFBFF">:</text>
      <text x="54" y="120" fill="#2CB67D">role</text>
      <text x="112" y="120">=</text>
      <text x="138" y="120" fill="#FFB86C">"Software Development Engineer"</text>
      <text x="54" y="154" fill="#2CB67D">focus</text>
      <text x="112" y="154">=</text>
      <text x="138" y="154" fill="#FFB86C">["Django", "APIs", "Testing"]</text>
      <text x="54" y="188" fill="#2CB67D">ship</text>
      <text x="112" y="188">=</text>
      <text x="138" y="188" fill="#FFB86C">"clean web apps"</text>
      <rect class="type" x="282" y="175" width="9" height="18" rx="2" fill="#00D9FF"/>
    </g>

    <rect class="scan" x="26" y="54" width="468" height="44" rx="16" fill="url(#cyan)" opacity=".18"/>
  </g>

  <g filter="url(#glow)">
    <circle class="pulse" cx="224" cy="284" r="5" fill="#00D9FF"/>
    <circle class="pulse" cx="454" cy="46" r="4" fill="#2CB67D"/>
    <circle class="pulse" cx="905" cy="238" r="5" fill="#7F5AF0"/>
    <circle class="pulse" cx="78" cy="180" r="3.5" fill="#00D9FF"/>
  </g>

  <g opacity=".5">
    <path d="M95 320h790" stroke="#22304D"/>
    <path d="M142 286h696" stroke="#22304D"/>
    <path d="M188 252h604" stroke="#22304D"/>
    <path d="M150 320l250-110M830 320L580 210" stroke="#22304D"/>
  </g>
</svg>
